<svg width="56" height="56" viewBox="0 0 56 56" fill="none" xmlns="http://www.w3.org/2000/svg">
<path d="M29.5878 4.79376C35.121 4.79376 39.7282 8.7255 40.7439 13.9328C40.8774 14.617 41.3478 15.1974 41.9962 15.4536C47.0982 17.4693 50.7056 22.4216 50.7056 28.2134C50.7056 34.8308 45.9968 40.35 39.7298 41.6472C39.0933 41.7789 38.5582 42.2161 38.2934 42.8098C36.4002 47.0539 32.1294 50.0151 27.1597 50.0152C22.8071 50.0152 18.9887 47.7443 16.8352 44.3291C16.3041 43.4869 15.2187 43.1173 14.2502 43.3487C13.702 43.4797 13.1298 43.5492 12.5411 43.5493C8.50514 43.5493 5.23291 40.296 5.23291 36.2824C5.23292 35.0096 5.56258 33.8137 6.14098 32.7735C6.46853 32.1844 6.53647 31.471 6.27062 30.8516C5.60317 29.2966 5.23298 27.5853 5.23291 25.7877C5.23291 18.6524 11.0494 12.8673 18.2245 12.8673C18.4989 12.8673 18.7435 12.6946 18.8328 12.435C20.3632 7.99005 24.5994 4.79396 29.5878 4.79376Z" fill="#4397E0"/>
<path d="M30.1768 4.4707C35.8944 4.72469 40.593 8.87472 41.6553 14.3223C41.733 14.7203 42.007 15.0501 42.3672 15.1924C47.7989 17.3379 51.6464 22.6132 51.6465 28.7891L51.6318 29.4463C51.3312 36.2074 46.4165 41.7649 39.9521 43.1025C39.5989 43.1758 39.2939 43.4216 39.1426 43.7607C37.11 48.3188 32.5247 51.4989 27.1895 51.499L26.7529 51.4922C22.2616 51.3456 18.3426 48.9455 16.1035 45.3926C15.7997 44.9105 15.1208 44.6426 14.4707 44.7988C13.8545 44.9469 13.2114 45.0263 12.5508 45.0264C8.16897 45.0262 4.58305 41.6023 4.36328 37.2881L4.35254 36.8682C4.35257 35.6785 4.61 34.5474 5.07129 33.5273C5.05936 33.3585 5.09722 33.1883 5.18066 33.0332C5.24659 32.9087 5.31429 32.7851 5.38379 32.6631C5.43672 32.5699 5.49189 32.4783 5.54688 32.3867C5.56504 32.2222 5.55365 32.0601 5.51074 31.9102L5.46484 31.7793C4.74994 30.1145 4.35256 28.2821 4.35254 26.3594C4.35271 18.7793 10.4857 12.6319 18.0752 12.543C19.773 7.82905 24.3012 4.45801 29.6211 4.45801L30.1768 4.4707ZM29.6211 6.45801C25.166 6.45801 21.3765 9.27968 19.957 13.2207L19.4863 14.5264L18.0986 14.543C11.5928 14.6192 6.35271 19.8865 6.35254 26.3594C6.35255 27.7581 6.59929 29.098 7.04785 30.3418C8.06734 29.1904 9.25893 28.2194 10.5371 27.4482C10.6517 27.379 10.7668 27.3104 10.8828 27.2441C10.9629 27.1988 11.0622 27.1875 11.1553 27.209C11.2484 27.2308 11.3282 27.2844 11.3799 27.3604C11.4315 27.4363 11.4515 27.5304 11.4375 27.625C11.4233 27.7194 11.3763 27.8075 11.3047 27.8652C11.2055 27.9452 11.1067 28.0261 11.0098 28.1084C9.53811 29.3535 8.33689 30.8715 7.54102 32.5371C7.49735 33.0172 7.35168 33.483 7.12109 33.8975C6.63135 34.7777 6.35257 35.7892 6.35254 36.8682C6.3526 40.2627 9.1216 43.0262 12.5508 43.0264C13.0513 43.0263 13.5379 42.9665 14.0039 42.8545L14.2656 42.8018C15.4979 42.6029 16.842 43.0507 17.6348 44.0938L17.7959 44.3262L17.9834 44.6143C19.9716 47.5612 23.352 49.499 27.1895 49.499C31.7104 49.4989 35.5941 46.8062 37.3154 42.9463L37.3975 42.7773C37.4587 42.6595 37.5267 42.5459 37.6016 42.4375C35.1845 41.9035 33.0065 40.534 31.4922 38.6846C31.3659 38.529 31.2441 38.3687 31.1279 38.2061C31.0734 38.1292 31.0511 38.0313 31.0645 37.9355C31.0781 37.8397 31.1255 37.753 31.1992 37.6943C31.273 37.6357 31.3683 37.6089 31.4648 37.6172C31.561 37.6257 31.6513 37.669 31.7139 37.7393C31.8365 37.8766 31.9641 38.0102 32.0947 38.1396C34.4514 40.4698 38.0121 41.5009 40.9873 40.666C41.152 40.6203 41.3141 40.5692 41.4746 40.5127C41.5734 40.4787 41.6752 40.4619 41.7764 40.4609C46.3972 38.5708 49.6464 34.0559 49.6465 28.7891C49.6464 23.4675 46.3317 18.9091 41.6318 17.0527C40.62 16.653 39.8972 15.7551 39.6924 14.7061V14.7051C38.7769 10.01 34.6195 6.45826 29.6211 6.45801ZM32.748 13.9814C33.1915 13.9491 33.637 13.9474 34.0771 13.9785C34.1718 13.9857 34.2636 14.0242 34.332 14.0918C34.4005 14.1594 34.44 14.2502 34.4424 14.3447C34.4447 14.4392 34.4097 14.5317 34.3447 14.6025C34.2795 14.6735 34.1891 14.7168 34.0947 14.7285C33.6911 14.7799 33.2923 14.8572 32.9023 14.957C29.3953 15.8814 26.499 18.4782 25.1445 21.6279C24.7281 22.6088 24.4716 23.6472 24.4033 24.7051C24.3814 25.0597 24.099 25.4676 23.7598 25.5732C21.6553 26.2054 19.8569 28.2663 19.6758 30.666C19.6475 31.0508 19.6621 31.4424 19.7236 31.832C19.739 31.9257 19.7233 32.0239 19.6738 32.1064C19.6243 32.189 19.5454 32.2488 19.4541 32.2734C19.3628 32.298 19.2649 32.2858 19.1807 32.2393C19.0963 32.1926 19.0327 32.1154 18.999 32.0264C18.8413 31.6 18.7369 31.1489 18.6885 30.6895C18.407 28.0189 20.006 25.2644 22.5283 24.0361C22.608 22.9375 22.8756 21.8536 23.3037 20.8467C24.9467 17.0023 28.7354 14.2894 32.748 13.9814Z" fill="#034180"/>
</svg>
