<svg width="56" height="56" viewBox="0 0 56 56" fill="none" xmlns="http://www.w3.org/2000/svg">
<path d="M4.23988 30.1228C3.25134 18.7903 13.1111 9.04061 26.2621 8.34652C39.4131 7.6525 50.8754 16.2768 51.8639 27.6092C52.237 31.8867 51.0637 35.9381 48.7518 39.3626C48.3848 39.9063 48.3231 40.6133 48.6291 41.224L51.1521 46.2595C51.5134 46.9806 50.9149 47.762 50.1216 47.6048L42.3344 46.0627C41.8934 45.9754 41.4446 46.0506 41.0635 46.2597C37.808 48.0454 33.9888 49.1661 29.8416 49.385C16.6907 50.079 5.22853 41.4551 4.23988 30.1228Z" fill="#C19EDB"/>
<path d="M3.23518 30.1586C2.18919 18.1661 12.5901 8.0726 26.1588 7.35646C39.7341 6.64011 51.8211 15.5612 52.869 27.5733C53.2629 32.0895 52.0215 36.3532 49.6008 39.939C49.411 40.2203 49.3969 40.5572 49.5296 40.822L52.0528 45.8577C52.7829 47.3151 51.573 48.894 49.9699 48.5765L42.1829 47.0346C41.9899 46.9964 41.7787 47.0263 41.5876 47.1311C38.2047 48.9867 34.242 50.1482 29.9453 50.375C16.3701 51.0913 4.28313 42.1706 3.23518 30.1586ZM26.3658 9.33638C13.6326 10.0085 4.31399 19.4145 5.24496 30.0869C6.17435 40.7396 17.0118 49.0667 29.7383 48.3951C33.7359 48.1841 37.4114 47.1039 40.5395 45.388C41.1106 45.0748 41.7972 44.9549 42.4862 45.0913L50.2334 46.625L50.2519 46.6618C50.2539 46.6658 50.2531 46.6654 50.2523 46.6613L50.2702 46.6534L50.2733 46.6337C50.2775 46.6334 50.2781 46.634 50.2737 46.6332L50.2732 46.6332L50.2334 46.625L47.7287 41.6261C47.2495 40.6695 47.3594 39.5925 47.9035 38.7865C50.1064 35.5232 51.2115 31.6839 50.8592 27.645C49.9298 16.9923 39.0923 8.66476 26.3658 9.33638ZM50.2697 46.6534L50.2523 46.6613L50.2518 46.6485C50.2523 46.6438 50.2533 46.6412 50.2537 46.6404C50.2547 46.6397 50.2568 46.6384 50.2605 46.637C50.2644 46.6355 50.2692 46.6341 50.2733 46.6337L50.2697 46.6534Z" fill="#7D4794"/>
<path d="M25.7716 18.4804C26.3676 18.3354 27.0088 18.6096 27.3082 19.1391C27.9758 20.3807 28.4654 21.6178 29.1461 22.6982C29.5788 23.384 30.0921 24.0039 30.7399 24.373C30.8483 24.4341 30.9288 24.5379 30.965 24.6591C31.0011 24.7805 30.9901 24.9096 30.9328 25.0199C30.8755 25.1303 30.7763 25.2135 30.6564 25.2538C30.5364 25.294 30.405 25.2878 30.2926 25.2343C29.4009 24.8026 28.7329 24.0892 28.1842 23.3676C27.5326 22.5022 27.0153 21.5811 26.4933 20.7172C26.7635 22.4749 27.2733 24.419 26.1789 26.6269C26.1751 26.6333 26.1709 26.6396 26.1671 26.6459C25.339 27.8017 24.3502 28.4068 23.3781 28.8461C24.5019 28.7426 25.7235 28.7637 27.0675 29.353C28.7604 30.3565 29.5989 31.7873 30.3048 33.1459C30.1297 31.7006 30.0418 30.1229 30.9113 28.3979C30.914 28.3933 30.9168 28.3883 30.9196 28.3837C32.2904 26.4954 34.0634 26.1595 35.5333 25.6205C35.1328 25.5989 34.72 25.5796 34.3063 25.5712C34.199 25.5688 34.0914 25.5201 34.008 25.4433C33.9244 25.366 33.8719 25.2671 33.861 25.1606C33.8501 25.0541 33.8817 24.9464 33.9479 24.8539C34.0142 24.7619 34.1099 24.6924 34.2145 24.6684C34.8797 24.5175 35.5459 24.3025 36.2765 24.2138C36.5801 24.19 36.8917 24.2829 37.132 24.457C37.2122 24.5145 37.2856 24.5807 37.3517 24.6537C37.4794 24.7948 37.5792 24.9631 37.6408 25.1469C37.8441 25.6821 37.6103 26.4553 37.0133 26.7582C35.2725 27.7325 33.2878 28.4021 32.6696 29.4355C32.6682 29.4378 32.6665 29.44 32.6652 29.4423C31.9103 30.7331 32.4113 32.9722 32.5592 35.1821C32.6244 35.9212 32.0432 36.6431 31.3766 36.789C30.6897 36.969 29.9332 36.6666 29.5666 36.0424C28.4182 34.0682 27.5741 31.9099 26.1344 31.1406C24.9276 30.5161 22.892 31.0107 20.8102 31.1059C20.075 31.133 19.433 30.6347 19.2335 29.977C19.0127 29.354 19.3064 28.4747 19.987 28.1498C21.8074 27.2504 23.8221 26.7044 24.4787 25.6357C24.4805 25.6325 24.4826 25.6295 24.4845 25.6264C25.2457 24.3247 24.7924 22.0611 24.7233 19.8691C24.6743 19.2163 25.1917 18.5967 25.7716 18.4804ZM30.525 35.2577C30.5247 35.2727 30.5255 35.2877 30.527 35.3027C30.5266 35.2877 30.5255 35.2727 30.525 35.2577ZM36.2252 25.6645C36.2505 25.6763 36.2914 25.6802 36.3253 25.6664C36.2896 25.6642 36.2536 25.6623 36.2174 25.6601C36.22 25.6615 36.2225 25.6632 36.2252 25.6645ZM25.9957 19.9233C26.0049 19.9432 26.0161 19.9604 26.029 19.975C26.0177 19.9579 26.007 19.9403 25.9957 19.9233Z" fill="#7D4794"/>
</svg>
