<svg width="56" height="56" viewBox="0 0 56 56" fill="none" xmlns="http://www.w3.org/2000/svg">
<path d="M37.1527 27.5627C34.6545 28.4859 35.8397 23.5504 35.2616 18.8057C34.3279 11.1537 29.8583 6.05641 25.3763 5.13965C25.0124 5.06521 24.7128 5.39849 24.76 5.76694C25.273 9.76733 23.3437 15.0002 21.5798 17.6007C21.3252 17.9761 20.7772 17.8315 20.6496 17.3962C20.0447 15.3342 18.7717 13.5706 16.4883 13.0688C16.1515 12.9948 15.86 13.284 15.8723 13.6286C16.0462 18.4995 13.2201 22.4192 11.654 27.2001C10.2477 31.4846 9.29757 37.6003 12.7404 42.7674C18.1552 50.9003 27.7823 51.6616 33.4547 50.5722C40.3696 49.2453 44.8363 44.5343 46.4682 39.3988C49.4871 29.8983 43.567 24.1881 43.1977 20.7619C43.1566 20.3798 42.8152 20.0391 42.4513 20.1627C38.6506 21.4532 38.982 26.8808 37.1524 27.5578L37.1527 27.5627Z" fill="#F05F2B"/>
<path d="M23.7679 5.89443C23.6515 4.98716 24.4071 3.92091 25.5765 4.16006C30.6182 5.19132 35.2878 10.7655 36.2542 18.6845C36.4056 19.9276 36.4402 21.1715 36.4495 22.2978C36.459 23.45 36.443 24.4315 36.4856 25.2587C36.5066 25.6649 36.5407 25.9972 36.5911 26.2606C36.6281 26.4539 36.6685 26.5798 36.7015 26.6571C36.7074 26.6555 36.7134 26.6532 36.72 26.6513L36.805 26.62C36.8511 26.6029 37.0305 26.488 37.3079 25.8817C37.5803 25.2865 37.7844 24.6221 38.1302 23.7294C38.7607 22.1018 39.7673 20.0179 42.1292 19.2157C42.7134 19.0173 43.2523 19.2169 43.5989 19.5165C43.8892 19.7673 44.0893 20.1159 44.1663 20.4921L44.1917 20.6552L44.2317 20.9101C44.3548 21.528 44.6888 22.3053 45.1907 23.3505C45.7378 24.4896 46.4452 25.8753 47.0394 27.4491C48.2443 30.6412 49.0164 34.6819 47.4212 39.702C45.6835 45.1701 40.9347 50.1554 33.6429 51.5546C27.7833 52.6798 17.6431 51.9368 11.9075 43.3222C8.20298 37.7623 9.26879 31.2594 10.7034 26.8886L10.8567 26.4364C11.6401 24.1796 12.7056 22.0167 13.4876 20.0751C14.3489 17.9364 14.9519 15.892 14.8724 13.664C14.8434 12.8476 15.5165 11.9693 16.5013 12.0604L16.7024 12.0927L16.9583 12.1542C19.1863 12.7371 20.5333 14.3488 21.2796 16.1776C21.9305 15.0285 22.5826 13.5353 23.0657 11.9218C23.6824 9.862 23.9999 7.70417 23.7679 5.89443ZM25.8128 6.28408C25.9523 8.30478 25.5784 10.5032 24.9817 12.496C24.3195 14.708 23.3566 16.7627 22.4075 18.162C22.0271 18.7229 21.3895 18.9057 20.8372 18.7753C20.309 18.6505 19.8566 18.2465 19.6897 17.6776C19.2087 16.0377 18.3165 14.772 16.8763 14.2255C16.8458 16.6136 16.1704 18.7679 15.3431 20.8222C14.4741 22.9797 13.5068 24.8962 12.7522 27.0722L12.6038 27.5116C11.2688 31.5786 10.4439 37.0823 13.2854 41.7626L13.5726 42.2128V42.2138C18.6664 49.8643 27.7807 50.6432 33.2659 49.5897C39.8037 48.3352 43.9888 43.8984 45.5149 39.0956C46.9384 34.6157 46.2608 31.0507 45.1683 28.1562C44.6136 26.6868 43.9595 25.4087 43.387 24.2167C42.9182 23.2406 42.4674 22.251 42.2767 21.3222C41.158 21.9133 40.5322 23.0665 39.9954 24.452C39.7204 25.162 39.426 26.0618 39.1272 26.7147C38.9237 27.1596 38.6369 27.6881 38.1917 28.078L38.2034 28.2401L37.4993 28.5009C37.076 28.6573 36.5975 28.7409 36.1185 28.6122C35.6115 28.4759 35.2588 28.1445 35.0315 27.7733C34.8175 27.4238 34.6995 27.0192 34.6263 26.6366C34.5513 26.2452 34.5117 25.8104 34.4886 25.3612C34.443 24.4769 34.4584 23.392 34.4495 22.3134C34.4404 21.2088 34.4064 20.0557 34.2688 18.9267C33.4163 11.9404 29.5484 7.43001 25.8128 6.28408Z" fill="#9E2B08"/>
<path d="M38.1997 41.1199C38.3231 41.1059 38.4449 41.1361 38.5414 41.2073C38.6378 41.2785 38.7027 41.3858 38.7257 41.5077C38.7487 41.6299 38.727 41.7563 38.6759 41.8673C38.5002 42.2204 38.2954 42.5323 38.0715 42.8352C36.7822 44.5397 34.9944 45.8401 32.9222 46.588C31.8625 46.9656 30.751 47.1724 29.6421 47.2235C26.0965 47.3493 22.6685 46.1655 20.0868 43.8186C19.8164 43.5483 19.5472 43.2728 19.3236 42.8633C19.2733 42.7524 19.2529 42.6263 19.2777 42.5049C19.3025 42.3835 19.3695 42.2771 19.4672 42.2076C19.565 42.1381 19.6876 42.1093 19.8104 42.1259C19.9334 42.1423 20.0458 42.2032 20.134 42.2873C20.308 42.4172 20.6 42.5773 20.8788 42.7021C23.6333 43.842 26.693 44.3049 29.5015 44.1985C30.3886 44.1572 31.2593 44.0507 32.1174 43.8618C33.8042 43.4844 35.5332 42.8081 37.1041 41.8267C37.3753 41.6529 37.6385 41.4702 37.8714 41.2739C37.9623 41.1923 38.0762 41.1339 38.1997 41.1199Z" fill="#FAB341"/>
</svg>
