<svg width="56" height="56" viewBox="0 0 56 56" fill="none" xmlns="http://www.w3.org/2000/svg">
<path d="M10.2837 10.2952C17.1207 3.43194 28.2271 3.41039 35.0904 10.2474L36.3457 11.4979C42.6425 17.7706 43.179 27.6361 37.9449 34.5223C40.0498 36.1032 44.7502 39.8541 46.419 41.3441C48.3542 43.0719 50.2894 44.5926 50.8423 46.1131C51.3952 47.6336 50.4278 49.9835 48.9073 50.6746C47.3867 51.3657 45.244 50.882 44.2764 49.9144C41.1936 46.5575 35.4765 39.4794 34.3531 38.0628C27.5001 43.1107 17.8028 42.5444 11.5865 36.3519L10.3311 35.1014C3.46803 28.2644 3.44691 17.1585 10.2837 10.2952Z" fill="#FFC95C"/>
<path d="M44.8767 45.3791C45.492 44.7502 46.4039 44.4596 47.2048 44.553C47.2956 44.5622 47.3815 44.5759 47.47 44.593C47.5648 44.6147 47.6573 44.6566 47.7283 44.7248C47.7993 44.793 47.8429 44.881 47.8499 44.9743C47.8567 45.0676 47.827 45.1611 47.7669 45.239C47.7067 45.317 47.6211 45.3719 47.5305 45.4074C47.4617 45.4363 47.3976 45.4655 47.3323 45.4958C46.7514 45.7691 46.3252 46.0885 45.9578 46.4558C45.5933 46.8253 45.2463 47.246 44.9334 47.8225C44.899 47.8865 44.8651 47.9523 44.8323 48.0202C44.8004 48.0918 44.7553 48.1595 44.6931 48.2077C44.6311 48.2559 44.5575 48.281 44.4837 48.2766C44.4098 48.2721 44.3393 48.2386 44.2835 48.1833C44.2276 48.128 44.1912 48.0551 44.1682 47.9802C44.1447 47.8934 44.1259 47.8048 44.1116 47.7151C43.9772 46.9085 44.2532 45.9985 44.8767 45.3791Z" fill="#B66A1F"/>
<path d="M21.6253 8.37913C22.76 8.36761 23.8918 8.49627 24.9861 8.76096C25.0809 8.78402 25.1648 8.84182 25.2185 8.92405C25.2722 9.00625 25.2915 9.10587 25.2722 9.20139C25.2528 9.2969 25.1964 9.38142 25.115 9.43625C25.0335 9.49108 24.9335 9.51152 24.8372 9.49582C23.7864 9.32502 22.7197 9.28248 21.6677 9.36545C18.4074 9.61337 15.3188 11.1108 13.1253 13.4387C8.80305 17.8273 8.35237 25.2689 12.1062 30.0017C12.4395 30.436 12.7987 30.8452 13.1868 31.2336C17.767 36.0301 26.217 36.0743 31.0432 31.2888C32.5653 29.8477 33.7494 28.0346 34.4475 26.0256C34.795 25.0291 35.025 23.986 35.1287 22.926C35.1382 22.829 35.1833 22.7378 35.2571 22.6731C35.3309 22.6083 35.4273 22.5756 35.5247 22.5813C35.6219 22.587 35.7133 22.631 35.7791 22.7038C35.8447 22.7767 35.8791 22.8724 35.8772 22.9699C35.8533 24.0951 35.6902 25.2225 35.3909 26.3171C34.7909 28.5234 33.6226 30.591 32.0281 32.2698C27.0055 37.8784 17.1551 38.2474 11.7781 32.6477C11.3262 32.1991 10.9076 31.7248 10.5198 31.2195C6.1183 25.6873 6.93369 17.0133 12.0173 12.3352C14.5868 9.84071 18.1117 8.40094 21.6253 8.37913Z" fill="#B66A1F"/>
<path fill-rule="evenodd" clip-rule="evenodd" d="M9.57496 9.58957C16.8016 2.33512 28.5411 2.31229 35.7957 9.53879L37.051 10.7893C43.4637 17.1775 44.2228 27.0886 39.3225 34.3147C41.6545 36.1069 45.571 39.2464 47.0847 40.5979C48.0184 41.4315 49.0331 42.2856 49.8518 43.0954C50.6644 43.8993 51.4252 44.7903 51.782 45.7712C52.1706 46.8401 51.9998 48.0781 51.574 49.092C51.1473 50.1079 50.3787 51.1038 49.3211 51.5847C48.3302 52.035 47.1967 52.0826 46.2034 51.9001C45.2184 51.7192 44.2346 51.2868 43.5691 50.6213C43.5592 50.6114 43.5493 50.6009 43.5398 50.5906C40.8003 47.6075 36.0227 41.7408 34.1555 39.4172C26.9713 44.1524 17.2166 43.3719 10.8806 37.0603L9.62525 35.8098C2.37117 28.5831 2.34864 16.844 9.57496 9.58957ZM34.3845 10.9558C27.9125 4.50879 17.4391 4.52879 10.992 11.0007C4.54503 17.4726 4.56491 27.9456 11.0364 34.3928L12.2918 35.6433C18.0033 41.3329 26.8322 41.9853 33.2586 37.6111C33.0899 36.9169 32.9858 36.1482 33.1511 35.3557C33.1926 35.1584 33.2518 34.965 33.3264 34.781C33.6397 34.0121 34.2461 33.3592 35.0818 33.1452C35.1966 33.1181 35.3147 33.1014 35.4319 33.0974C35.524 33.0985 35.6192 33.1408 35.6951 33.2053C35.771 33.2703 35.8213 33.3526 35.8367 33.4431C35.8519 33.5337 35.8314 33.6282 35.781 33.7146C35.7305 33.8004 35.6542 33.8718 35.5676 33.9031C35.5128 33.9281 35.4611 33.9591 35.4133 33.9953C35.0686 34.2593 34.9039 34.7685 34.8919 35.198C34.8851 35.3194 34.8856 35.4373 34.8914 35.5539C34.9187 36.126 35.123 36.73 35.4368 37.3699C35.4715 37.4405 35.5073 37.511 35.5447 37.5823C35.6283 37.7444 35.6679 37.9194 35.6589 38.0935C37.4684 40.3469 42.2668 46.2448 44.9924 49.216C45.2967 49.5148 45.8636 49.804 46.5647 49.9328C47.2646 50.0614 47.9638 50.0046 48.4934 49.7639C48.956 49.5535 49.4313 49.0293 49.7302 48.3176C50.03 47.6038 50.0663 46.9064 49.9021 46.4548C49.7059 45.9154 49.2224 45.2857 48.4456 44.5173C47.6747 43.7548 46.7541 42.9841 45.7527 42.0901C44.1138 40.6268 39.4386 36.8947 37.344 35.3215C37.1313 35.1616 36.991 34.9234 36.9544 34.6599C36.9177 34.3963 36.9877 34.1291 37.1487 33.9172C42.0838 27.4244 41.5769 18.1207 35.6399 12.2063L34.3845 10.9558Z" fill="#B66A1F"/>
</svg>
