<svg width="32" height="32" viewBox="0 0 32 32" fill="none" xmlns="http://www.w3.org/2000/svg">
<path d="M15.7394 29.0208C18.2762 29.0208 23.3753 27.029 26.095 22.5644C28.3304 18.8968 28.6505 14.9624 28.4489 12.1956C28.178 8.46349 26.5946 7.89585 23.9443 7.0342C21.8783 6.36289 20.3186 5.43156 19.3347 4.46283C18.2508 3.39554 16.9858 2.97916 15.7394 2.97916C14.493 2.97916 13.228 3.39554 12.1442 4.46283C11.1603 5.43156 9.5989 6.36289 7.53456 7.0342C4.88427 7.89585 3.30088 8.46519 3.02992 12.1956C2.8284 14.9607 3.15016 18.8968 5.38385 22.5644C8.10356 27.0273 13.2026 29.0208 15.7394 29.0208Z" fill="#589D88"/>
<path d="M15.74 2.40793C17.1227 2.40804 18.5362 2.87422 19.7361 4.05581C20.6414 4.94702 22.1163 5.83966 24.1211 6.49108C25.4161 6.91211 26.6095 7.30263 27.481 8.12277C28.387 8.97557 28.8781 10.2143 29.019 12.1546C29.2258 14.9948 28.9005 19.0602 26.5832 22.8622C25.1609 25.1968 23.1233 26.8746 21.1228 27.9682C19.1324 29.0562 17.1293 29.5925 15.74 29.5926C14.3506 29.5926 12.347 29.0559 10.3566 27.9676C8.35617 26.8739 6.31853 25.1959 4.89623 22.8622V22.8616C2.58078 19.0598 2.25354 14.9927 2.4604 12.154C2.60134 10.2144 3.09282 8.97625 3.9989 8.12333C4.87047 7.30299 6.06302 6.91219 7.35828 6.49108C9.36166 5.83955 10.8381 4.94697 11.7433 4.05581C12.9433 2.87409 14.3572 2.40793 15.74 2.40793ZM15.74 3.55079C14.63 3.55079 13.5128 3.91714 12.5452 4.86998C11.4826 5.91616 9.83651 6.88651 7.71152 7.57757C6.35658 8.01809 5.43226 8.34312 4.78183 8.95536C4.16601 9.53507 3.72996 10.4467 3.59991 12.2372C3.40378 14.9286 3.72045 18.7342 5.87223 22.2673L5.99556 22.4648C7.28661 24.4922 9.09982 25.978 10.9046 26.9648C12.7776 27.9889 14.5927 28.4498 15.74 28.4498C16.8875 28.4496 18.702 27.9892 20.5748 26.9654C22.4377 25.947 24.3098 24.3969 25.6072 22.2673L25.8041 21.9353C27.7801 18.4978 28.0695 14.8463 27.8795 12.2372C27.7494 10.446 27.3132 9.53426 26.6976 8.9548C26.0472 8.34279 25.1229 8.0181 23.7679 7.57757V7.57813C21.641 6.88706 19.9967 5.91602 18.9342 4.86998C17.9667 3.91729 16.8498 3.5509 15.74 3.55079ZM15.9643 4.59654C16.1181 4.58711 16.2694 4.63803 16.3828 4.73829C16.4964 4.83865 16.5631 4.98034 16.5698 5.1317C16.5847 5.47238 16.5986 5.81564 16.6111 6.15681C16.8133 12.3088 16.7716 18.444 16.3254 24.5865C16.2956 24.9183 16.2622 25.2741 16.2121 25.6122C16.2036 25.6672 16.1727 25.7174 16.1278 25.7511C16.0828 25.7847 16.0267 25.7998 15.9716 25.7924C15.9164 25.785 15.8661 25.7558 15.8315 25.7115C15.797 25.6671 15.7806 25.6106 15.7869 25.5552C15.8227 25.2356 15.8447 24.8814 15.8622 24.5536C16.0923 18.4434 15.9199 12.3102 15.5056 6.21652C15.4814 5.8786 15.4558 5.53908 15.4291 5.20201C15.4172 5.05102 15.4661 4.902 15.5664 4.78851C15.6667 4.67512 15.8105 4.60609 15.9643 4.59654Z" fill="#11604D"/>
</svg>
