<svg width="56" height="56" viewBox="0 0 56 56" fill="none" xmlns="http://www.w3.org/2000/svg">
<path d="M27.544 50.7864C31.9835 50.7864 40.9068 47.3007 45.6663 39.4876C49.5782 33.0694 50.1383 26.1842 49.7856 21.3423C49.3115 14.8111 46.5405 13.8177 41.9025 12.3098C38.287 11.135 35.5575 9.5052 33.8357 7.80994C31.939 5.94217 29.7252 5.2135 27.544 5.2135C25.3628 5.2135 23.149 5.94217 21.2523 7.80994C19.5305 9.5052 16.7981 11.135 13.1855 12.3098C8.54749 13.8177 5.77655 14.8141 5.30238 21.3423C4.94971 26.1813 5.51279 33.0694 9.42175 39.4876C14.1813 47.2977 23.1046 50.7864 27.544 50.7864Z" fill="#589D88"/>
<path d="M27.5449 4.21387C29.9646 4.21406 32.4383 5.02987 34.5381 7.09766C36.1224 8.65727 38.7035 10.2194 42.2119 11.3594C44.4782 12.0962 46.5666 12.7796 48.0918 14.2148C49.6772 15.7072 50.5367 17.8749 50.7832 21.2705C51.1451 26.2409 50.5758 33.3554 46.5205 40.0088C44.0315 44.0944 40.4657 47.0306 36.9649 48.9443C33.4817 50.8484 29.9762 51.7869 27.5449 51.7871C25.1136 51.7871 21.6073 50.8477 18.124 48.9434C14.6233 47.0293 11.0574 44.0928 8.56837 40.0088V40.0078C4.51634 33.3546 3.94367 26.2373 4.30567 21.2695C4.55232 17.8751 5.4124 15.7084 6.99805 14.2158C8.52329 12.7802 10.6103 12.0963 12.877 11.3594C16.3829 10.2192 18.9667 8.65718 20.5508 7.09766C22.6508 5.02966 25.125 4.21387 27.5449 4.21387ZM27.5449 6.21387C25.6025 6.21387 23.6474 6.85499 21.9541 8.52246C20.0946 10.3533 17.2139 12.0514 13.4951 13.2607C11.124 14.0316 9.50643 14.6004 8.36817 15.6719C7.29048 16.6864 6.5274 18.2817 6.29981 21.415C5.95659 26.1251 6.51076 32.7849 10.2764 38.9678L10.4922 39.3135C12.7515 42.8613 15.9246 45.4616 19.083 47.1885C22.3608 48.9805 25.5371 49.7871 27.5449 49.7871C29.553 49.7869 32.7285 48.981 36.0059 47.1895C39.266 45.4072 42.5422 42.6946 44.8125 38.9678L45.1572 38.3867C48.6151 32.3711 49.1216 25.9811 48.7891 21.415C48.5615 18.2804 47.7981 16.685 46.7207 15.6709C45.5826 14.5999 43.965 14.0317 41.5938 13.2607V13.2617C37.8718 12.0523 34.9942 10.353 33.1348 8.52246C31.4417 6.85525 29.487 6.21406 27.5449 6.21387ZM27.9375 8.04395C28.2067 8.02744 28.4714 8.11654 28.6699 8.29199C28.8686 8.46762 28.9855 8.71559 28.9971 8.98047C29.0232 9.57666 29.0475 10.1774 29.0693 10.7744C29.4232 21.5405 29.3503 32.277 28.5693 43.0264C28.5172 43.6071 28.4589 44.2296 28.3711 44.8213C28.3563 44.9176 28.3023 45.0054 28.2236 45.0645C28.1449 45.1231 28.0467 45.1496 27.9502 45.1367C27.8536 45.1237 27.7656 45.0726 27.7051 44.9951C27.6447 44.9175 27.6159 44.8186 27.627 44.7217C27.6897 44.1624 27.7282 43.5424 27.7588 42.9688C28.1615 32.276 27.8597 21.5428 27.1348 10.8789C27.0923 10.2875 27.0476 9.69339 27.001 9.10352C26.9801 8.83927 27.0657 8.5785 27.2412 8.37988C27.4167 8.18145 27.6684 8.06065 27.9375 8.04395Z" fill="#11604D"/>
</svg>
