<svg width="56" height="56" viewBox="0 0 56 56" fill="none" xmlns="http://www.w3.org/2000/svg">
<path d="M28.0154 51C32.4854 51 41.47 47.4903 46.2623 39.6235C50.2011 33.1612 50.765 26.2287 50.41 21.3535C49.9325 14.7773 47.1425 13.7771 42.4726 12.2589C38.8322 11.076 36.084 9.43498 34.3503 7.72805C32.4406 5.84745 30.2116 5.11377 28.0154 5.11377C25.8192 5.11377 23.5902 5.84745 21.6805 7.72805C19.9468 9.43498 17.1956 11.076 13.5582 12.2589C8.88829 13.7771 6.09829 14.7803 5.62086 21.3535C5.26577 26.2257 5.83272 33.1612 9.76855 39.6235C14.5608 47.4873 23.5455 51 28.0154 51Z" fill="#C19EDB"/>
<path d="M28.9936 16.458C30.2489 16.4005 31.3132 17.3772 31.3705 18.6392L31.3578 18.6494C31.3597 18.6486 31.3698 18.6418 31.3705 18.6421C31.3706 18.6438 31.3709 18.6464 31.371 18.6494C31.3713 18.6557 31.3715 18.665 31.372 18.6768C31.373 18.7003 31.3745 18.7347 31.3764 18.7793C31.3801 18.8688 31.3852 19.0001 31.3915 19.1689C31.4041 19.5067 31.4211 19.996 31.4379 20.6069C31.4812 22.1816 31.5043 23.7568 31.5067 25.332C31.5078 25.9936 32.0511 26.5275 32.7123 26.5073C34.0398 26.4668 35.3669 26.4127 36.6933 26.3447C37.2829 26.3145 37.7526 26.2879 38.0736 26.2686C38.2341 26.2589 38.3578 26.2509 38.4403 26.2456C38.4813 26.243 38.5122 26.2411 38.5326 26.2397C38.5428 26.2391 38.5507 26.2386 38.5556 26.2383C38.5577 26.2381 38.5594 26.2379 38.5605 26.2378H38.5619C39.8157 26.1529 40.9007 27.1058 40.9853 28.3662C41.0698 29.6267 40.1219 30.7176 38.8681 30.8027C38.8643 30.803 38.8609 30.803 38.8578 30.8032L38.8315 30.8052C38.8083 30.8067 38.774 30.8087 38.7299 30.8115C38.6417 30.8172 38.5125 30.8254 38.3461 30.8354C38.0128 30.8555 37.5291 30.8831 36.9247 30.9141C35.4567 30.9893 33.9878 31.0483 32.5185 31.0908C31.898 31.1088 31.3965 31.6035 31.3681 32.2236C31.2698 34.3742 31.1092 36.5397 30.8559 38.5063C30.6944 39.7592 29.5533 40.6432 28.307 40.481C27.0608 40.3186 26.1813 39.1713 26.3427 37.9185C26.5635 36.2049 26.7102 34.3031 26.8046 32.3789C26.8371 31.7161 26.307 31.1644 25.6435 31.1558C23.3952 31.1264 21.1099 31.038 19.0219 30.853C17.7702 30.7421 16.8448 29.6319 16.955 28.3735C17.0653 27.1151 18.1695 26.1846 19.4213 26.2954C21.4017 26.4709 23.5986 26.5549 25.7821 26.582C26.4292 26.5901 26.9562 26.0675 26.9555 25.4204C26.9538 23.8579 26.9315 22.2953 26.8886 20.7334C26.8722 20.1389 26.8562 19.6646 26.8442 19.3403C26.8381 19.1783 26.833 19.0535 26.8295 18.9702C26.8278 18.9286 26.8265 18.897 26.8256 18.8765C26.8252 18.8664 26.8248 18.8588 26.8246 18.854C26.8245 18.8516 26.8242 18.8497 26.8241 18.8486V18.8477L26.8222 18.7886C26.7973 17.5524 27.7578 16.5147 28.9936 16.458Z" fill="#7D4794"/>
<path fill-rule="evenodd" clip-rule="evenodd" d="M28.0155 4.11377C30.4503 4.11386 32.9387 4.93491 35.0517 7.01562C36.6478 8.58705 39.248 10.1595 42.7817 11.3076C45.064 12.0496 47.1642 12.7372 48.6986 14.1812C50.2936 15.6821 51.1589 17.8624 51.4071 21.2808C51.7716 26.2845 51.1984 33.4462 47.1161 40.144L47.1156 40.1436C44.6102 44.2563 41.0217 47.2126 37.4975 49.1392C33.9908 51.0561 30.4622 51.9999 28.0155 52C25.5688 52 22.0397 51.0554 18.5331 49.1382C15.0089 47.2113 11.4199 44.2553 8.91446 40.144C4.83542 33.4465 4.25897 26.2818 4.62345 21.2808C4.87168 17.8637 5.73708 15.6839 7.33194 14.1826C8.86634 12.7383 10.9662 12.0503 13.2489 11.3081C16.78 10.1598 19.383 8.58691 20.9789 7.01562C23.092 4.93485 25.5806 4.11377 28.0155 4.11377ZM28.0155 6.11377C26.0582 6.11377 24.0885 6.76028 22.3822 8.44043C20.5109 10.2829 17.6107 11.9925 13.8671 13.21C11.4801 13.986 9.84993 14.5587 8.70255 15.6387C7.61568 16.6618 6.84731 18.27 6.61808 21.4258C6.2724 26.169 6.8297 32.8761 10.622 39.103C12.9088 42.8555 16.209 45.5879 19.4926 47.3833C22.7937 49.1882 25.9924 50 28.0155 50C30.0388 49.9999 33.2372 49.1886 36.538 47.3843C39.8215 45.5893 43.1214 42.8569 45.4081 39.103C49.2033 32.8763 49.7582 26.1729 49.4125 21.4263C49.1833 18.2689 48.4147 16.6603 47.328 15.6377C46.3241 14.693 44.9507 14.1369 43.0238 13.4927L42.1635 13.21C38.4164 11.9924 35.5201 10.2828 33.6488 8.44043C31.9426 6.76034 29.9728 6.11386 28.0155 6.11377Z" fill="#7D4794"/>
</svg>
