<svg width="56" height="56" viewBox="0 0 56 56" fill="none" xmlns="http://www.w3.org/2000/svg">
<path d="M28.0003 50.7865C40.5849 50.7865 50.7868 40.5847 50.7868 28.0001C50.7868 15.4155 40.5849 5.21362 28.0003 5.21362C15.4157 5.21362 5.21387 15.4155 5.21387 28.0001C5.21387 40.5847 15.4157 50.7865 28.0003 50.7865Z" fill="#4397E0"/>
<path d="M28 4.21387C41.1368 4.21387 51.7869 14.8633 51.7871 28C51.787 41.1368 41.1368 51.7871 28 51.7871C14.8633 51.7869 4.214 41.1367 4.21387 28C4.21404 14.8634 14.8634 4.21404 28 4.21387ZM28 6.21387C15.9679 6.21404 6.21404 15.9679 6.21387 28C6.214 40.0321 15.9679 49.7869 28 49.7871C40.0323 49.7871 49.787 40.0322 49.7871 28C49.7869 15.9678 40.0322 6.21387 28 6.21387ZM14.1621 12.585C14.198 12.5965 14.2339 12.6089 14.2695 12.6211C14.728 12.779 15.1774 12.9632 15.6182 13.1738C17.6499 14.1863 19.5061 15.4418 21.249 16.8281C22.8999 15.5857 24.6315 14.4906 26.4189 13.4775C26.8561 13.2319 27.3005 12.9915 27.748 12.7607C27.7623 12.7534 27.7774 12.7466 27.792 12.7402C27.7952 12.7392 27.7995 12.7418 27.7998 12.7451C27.7999 13.3539 28.0034 13.9153 28.3457 14.3652C28.4525 14.5058 28.4194 14.717 28.2637 14.7998C27.9805 14.9492 27.6971 15.1032 27.417 15.2598C25.8479 16.1434 24.3078 17.1103 22.8574 18.167C23.5574 18.7752 24.2412 19.4003 24.9131 20.0342C26.6095 21.656 28.2225 23.3615 29.751 25.1377C29.8898 25.1607 30.0292 25.1835 30.168 25.207C30.1739 25.2081 30.1806 25.2099 30.1865 25.2109C32.936 25.6927 35.6552 26.3331 38.3389 27.1035C38.4321 27.1303 38.526 27.1574 38.6191 27.1846C38.863 27.2561 38.9505 27.5606 38.8242 27.7812C38.6015 28.1695 38.4738 28.6198 38.4736 29.0996C38.4734 29.2407 38.3387 29.3508 38.2041 29.3086C38.0449 29.2582 37.885 29.2084 37.7256 29.1592C35.7551 28.5515 33.7583 28.0189 31.7461 27.5596C33.2757 29.5038 34.6791 31.5401 35.9482 33.6514C36.2385 34.1345 36.5225 34.6219 36.7979 35.1123C36.8211 35.1539 36.8297 35.2037 36.8203 35.251C36.8107 35.2982 36.7831 35.3411 36.7441 35.3682C36.7052 35.3947 36.6557 35.4051 36.6084 35.3975C36.5607 35.3893 36.5169 35.3628 36.4863 35.3262C36.1287 34.8957 35.7681 34.4672 35.4053 34.042C33.7421 32.0947 32.0316 30.2021 30.2734 28.3721C29.8207 27.9014 29.3653 27.4336 28.9092 26.9668C24.5461 26.1367 20.0977 25.5611 15.6553 25.3252C13.5952 28.0375 11.8851 31.0422 10.7793 34.3115C10.6257 34.7713 10.4862 35.2353 10.3623 35.7002C10.3355 35.8007 10.2672 35.8883 10.1768 35.9434C10.086 35.9982 9.9785 36.017 9.87695 35.9941C9.77536 35.9711 9.68633 35.908 9.62793 35.8193C9.56994 35.7308 9.54648 35.6228 9.56543 35.5205C9.65774 35.0315 9.76428 34.5413 9.88281 34.0537C10.6377 30.9778 11.8501 27.9752 13.5146 25.2373C11.6661 25.1736 9.81309 25.146 7.98145 25.3438C7.86953 25.3563 7.75667 25.3691 7.64453 25.3838C7.42759 25.4122 7.23881 25.2292 7.27051 25.0127C7.28958 24.8847 7.38345 24.7804 7.50879 24.748C7.62599 24.7179 7.74424 24.6892 7.86133 24.6611C10.0059 24.1572 12.2077 23.9221 14.3965 23.873C15.1345 22.7998 15.9472 21.7751 16.834 20.8125C17.7373 19.8333 18.6966 18.9124 19.7119 18.0498C18.2073 16.6742 16.6692 15.3474 15.0449 14.1562C14.6805 13.8975 14.2975 13.6527 13.9062 13.4268C13.8603 13.4004 13.8139 13.3744 13.7676 13.3486C13.5589 13.2326 13.5159 12.9471 13.6904 12.7842C13.735 12.7425 13.7802 12.7004 13.8252 12.6592C13.9161 12.5762 14.045 12.5472 14.1621 12.585ZM41.1367 27.3086C42.1259 27.3088 42.9284 28.1105 42.9287 29.0996C42.9287 30.089 42.1261 30.8914 41.1367 30.8916C40.1473 30.8914 39.3457 30.0891 39.3457 29.0996C39.3461 28.1105 40.1475 27.3088 41.1367 27.3086ZM21.1289 19.5068C20.1336 20.3398 19.1942 21.2308 18.3086 22.1797C17.7946 22.7312 17.294 23.2994 16.8076 23.8809C20.0986 23.9526 23.3754 24.2312 26.6348 24.6699C25.5833 23.6227 24.5234 22.5857 23.4531 21.5625C22.7054 20.8567 21.9597 20.1459 21.21 19.4404C21.1832 19.4625 21.1556 19.4847 21.1289 19.5068ZM30.4785 10.9404C31.4755 10.9408 32.2839 11.7491 32.2842 12.7461C32.2842 13.7434 31.4757 14.5523 30.4785 14.5527C29.481 14.5527 28.6719 13.7436 28.6719 12.7461C28.6722 11.7488 29.4812 10.9404 30.4785 10.9404ZM38.8271 10.3018C38.9107 10.3039 38.9928 10.3286 39.0635 10.373C39.4358 10.6075 39.2896 11.1721 38.8545 11.2373C36.9765 11.5171 35.128 12.036 33.3574 12.6592C33.2595 12.6944 33.1554 12.6222 33.1465 12.5186C33.0941 11.8977 32.8295 11.337 32.4258 10.9092C32.4143 10.897 32.4201 10.8762 32.4365 10.873C32.5789 10.8458 32.7245 10.8191 32.8672 10.7939C34.8473 10.4586 36.8381 10.2538 38.8271 10.3018Z" fill="#045EB2"/>
</svg>
